# xmcd CD database file
#
# Track frame offsets:
#	150
#	19343
#	59525
#	82264
#	99646
#	118995
#	139764
#	161227
#	181149
#	201101
#
# Disc length: 2874 seconds
#
# Revision: 0
# Processed by: cddbd v1.5.1PL0 Copyright (c) Steve Scherf et al.
# Submitted via: CDex 1.51
#
DISCID=940b380a
DTITLE=Julie Mahendran - Never Do Without You
DYEAR=2003
DGENRE=Jazz
TTITLE0=On the Street Where You Live
TTITLE1=Freddie Freeloader
TTITLE2=Like a Lover
TTITLE3=La Costa
TTITLE4=Calling You
TTITLE5=Now or Never
TTITLE6=Killer
TTITLE7=Since I Fell For You
TTITLE8=Kissing a Fool
TTITLE9=What'll I Do/I'll Be Seeing You
EXTD=YEAR: 2003
EXTT0=
EXTT1=
EXTT2=
EXTT3=
EXTT4=
EXTT5=
EXTT6=
EXTT7=
EXTT8=
EXTT9=
PLAYORDER=
